<?xml version="1.0" standalone="no"?><!DOCTYPE svg PUBLIC "-//W3C//DTD SVG 1.1//EN" 
  "http://www.w3.org/Graphics/SVG/1.1/DTD/svg11.dtd">
<svg version="1.1" id="Layer_1" preserveAspectRatio="none" viewBox="0 0 60 10" xmlns="http://www.w3.org/2000/svg" xmlns:xlink="http://www.w3.org/1999/xlink" xml:space="preserve">

<defs>
	<rect id="assoc_word"            fill="#666666" x="0" y="-2.5" width="60" height="5"/>
	<rect id="assoc_participle"      fill="#FFC966" x="0" y="-2.5" width="60" height="5"/>
	<rect id="assoc_attribute"       fill="#00991A" x="0" y="-2.5" width="60" height="5"/>
	<polygon id="assoc_kind_of"      fill="#009B99" points="0,-5 0,5 60,0"/>
	<polygon id="assoc_part_of"      fill="#00D1FF" points="0,-5 0,5 60,0"/>
	<polygon id="assoc_member_of"    fill="#FFC900" points="0,-5 0,5 60,0"/>
	<polygon id="assoc_substance_of" fill="#B9642C" points="0,-5 0,5 60,0"/>
	<polygon id="assoc_pertains_to"  fill="#FF6038" points="0,-5 0,5 60,0"/>
	<polygon id="assoc_entails"      fill="#006ECF" points="0,-5 0,5 60,0"/>
	<polygon id="assoc_causes"       fill="#00CB00" points="0,-5 0,5 60,0"/>
	<polygon id="assoc_opposes"      fill="#FF001C" points="30,-5 0,0 30,5 60,0 "/>
	<g id="assoc_similar_to">
		<rect x= "0.00" y="-2.5" fill="#FF9600" width="5" height="5"/>
		<rect x= "9.17" y="-2.5" fill="#FF9600" width="5" height="5"/>
		<rect x="18.33" y="-2.5" fill="#FF9600" width="5" height="5"/>
		<rect x="27.50" y="-2.5" fill="#FF9600" width="5" height="5"/>
		<rect x="36.67" y="-2.5" fill="#FF9600" width="5" height="5"/>
		<rect x="45.83" y="-2.5" fill="#FF9600" width="5" height="5"/>
		<rect x="55.00" y="-2.5" fill="#FF9600" width="5" height="5"/>
	</g>
	<g id="assoc_verb_group">
		<rect x= "0.00" y="-2.5" fill="#00991A" width="5" height="5"/>
		<rect x= "9.17" y="-2.5" fill="#00991A" width="5" height="5"/>
		<rect x="18.33" y="-2.5" fill="#00991A" width="5" height="5"/>
		<rect x="27.50" y="-2.5" fill="#00991A" width="5" height="5"/>
		<rect x="36.67" y="-2.5" fill="#00991A" width="5" height="5"/>
		<rect x="45.83" y="-2.5" fill="#00991A" width="5" height="5"/>
		<rect x="55.00" y="-2.5" fill="#00991A" width="5" height="5"/>
	</g>
	<g id="assoc_also_see">
		<rect x= "0.00" y="-2.5" fill="#00D1FF" width="5" height="5"/>
		<rect x= "9.17" y="-2.5" fill="#00D1FF" width="5" height="5"/>
		<rect x="18.33" y="-2.5" fill="#00D1FF" width="5" height="5"/>
		<rect x="27.50" y="-2.5" fill="#00D1FF" width="5" height="5"/>
		<rect x="36.67" y="-2.5" fill="#00D1FF" width="5" height="5"/>
		<rect x="45.83" y="-2.5" fill="#00D1FF" width="5" height="5"/>
		<rect x="55.00" y="-2.5" fill="#00D1FF" width="5" height="5"/>
	</g>
	<g id="assoc_derivation">
		<rect x= "0.00" y="-2.5" fill="#808080" width="5" height="5"/>
		<rect x= "9.17" y="-2.5" fill="#808080" width="5" height="5"/>
		<rect x="18.33" y="-2.5" fill="#808080" width="5" height="5"/>
		<rect x="27.50" y="-2.5" fill="#808080" width="5" height="5"/>
		<rect x="36.67" y="-2.5" fill="#808080" width="5" height="5"/>
		<rect x="45.83" y="-2.5" fill="#808080" width="5" height="5"/>
		<rect x="55.00" y="-2.5" fill="#808080" width="5" height="5"/>
	</g>
	<g id="assoc_domain_topic">
		<polygon fill="#006ECF" points= "0,-5  0,5  12,0 "/>
		<polygon fill="#006ECF" points="12,-5 12,5  24,0 "/>
		<polygon fill="#006ECF" points="24,-5 24,5  36,0 "/>
		<polygon fill="#006ECF" points="36,-5 36,5  48,0 "/>
		<polygon fill="#006ECF" points="48,-5 48,5  60,0 "/>
	</g>
	<g id="assoc_domain_region">
		<polygon fill="#00CB00" points= "0,-5  0,5  12,0 "/>
		<polygon fill="#00CB00" points="12,-5 12,5  24,0 "/>
		<polygon fill="#00CB00" points="24,-5 24,5  36,0 "/>
		<polygon fill="#00CB00" points="36,-5 36,5  48,0 "/>
		<polygon fill="#00CB00" points="48,-5 48,5  60,0 "/>
	</g>
	<g id="assoc_domain_usage">
		<polygon fill="#FF001C" points= "0,-5  0,5  12,0 "/>
		<polygon fill="#FF001C" points="12,-5 12,5  24,0 "/>
		<polygon fill="#FF001C" points="24,-5 24,5  36,0 "/>
		<polygon fill="#FF001C" points="36,-5 36,5  48,0 "/>
		<polygon fill="#FF001C" points="48,-5 48,5  60,0 "/>
	</g>
	<g id="assoc_instance_of">
		<polygon fill="#009B99" points= "6,-4.5     0,-5        0,5       6,4.5 	"/> 
		<polygon fill="#009B99" points= "9,-4.25   14,-3.834   14,3.834   9,4.25 	"/>
		<polygon fill="#009B99" points="22,-3.166  17,-3.584   17,3.584  22,3.166 "/>
		<polygon fill="#009B99" points="30,-2.5    25,-2.916   25,2.916  30,2.5 	"/>
		<polygon fill="#009B99" points="38,-1.834  33,-2.25    33,2.25   38,1.834 "/>
		<polygon fill="#009B99" points="46,-1.166  41,-1.584   41,1.584  46,1.166 "/>
		<polygon fill="#009B99" points="49,-0.916  49, 0.916  60,0 	"/>
	</g>
</defs>


<g id="canvas">
	<use id="link" xlink:href="#assoc_also_see" transform="translate(0,5) scale(1,1)"/>
</g>

</svg>
